<svg width="640" height="480" viewBox="0 0 640 480" fill="none" xmlns="http://www.w3.org/2000/svg">
  <defs>
    <linearGradient id="bg" x1="0" y1="0" x2="1" y2="1">
      <stop offset="0" stop-color="#0f1117" />
      <stop offset="1" stop-color="#2b2f38" />
    </linearGradient>
    <linearGradient id="accent" x1="0" y1="0" x2="1" y2="0">
      <stop offset="0" stop-color="#cfd3da" />
      <stop offset="1" stop-color="#ffffff" />
    </linearGradient>
  </defs>
  <rect width="640" height="480" rx="28" fill="url(#bg)" />
  <rect x="48" y="56" width="280" height="368" rx="22" fill="#1b1f27" stroke="#3b4250" />
  <rect x="72" y="96" width="180" height="20" rx="10" fill="url(#accent)" opacity="0.7" />
  <rect x="72" y="136" width="220" height="12" rx="6" fill="#475062" />
  <rect x="72" y="162" width="200" height="12" rx="6" fill="#475062" />
  <rect x="72" y="188" width="190" height="12" rx="6" fill="#475062" />
  <rect x="72" y="242" width="240" height="12" rx="6" fill="#5b6476" />
  <rect x="72" y="268" width="220" height="12" rx="6" fill="#5b6476" />
  <rect x="72" y="294" width="210" height="12" rx="6" fill="#5b6476" />
  <rect x="72" y="328" width="120" height="36" rx="18" fill="#e5e7eb" />
  <rect x="216" y="328" width="96" height="36" rx="18" fill="#2e3340" stroke="#4a5161" />
  <rect x="360" y="120" width="232" height="40" rx="20" fill="#dbe1ea" />
  <rect x="360" y="180" width="232" height="18" rx="9" fill="#6f7687" />
  <rect x="360" y="208" width="210" height="18" rx="9" fill="#6f7687" />
  <rect x="360" y="236" width="190" height="18" rx="9" fill="#6f7687" />
  <rect x="360" y="276" width="232" height="96" rx="18" fill="#222734" stroke="#3e4657" />
  <circle cx="404" cy="324" r="28" fill="#dbe1ea" />
  <rect x="444" y="308" width="112" height="12" rx="6" fill="#9aa3b2" />
  <rect x="444" y="330" width="88" height="12" rx="6" fill="#9aa3b2" />
</svg>
